<svg width="45" height="30" viewBox="0 0 45 30" fill="none" xmlns="http://www.w3.org/2000/svg">
<path d="M2.07191 0.000177211C1.3352 -0.00882268 0.649948 0.325541 0.278545 0.87524C-0.0928482 1.42494 -0.0928482 2.10479 0.278545 2.65449C0.649938 3.20419 1.33519 3.53855 2.07191 3.52955H42.9281C43.6648 3.53855 44.3501 3.20419 44.7215 2.65449C45.0928 2.10479 45.0928 1.42494 44.7215 0.87524C44.3501 0.325541 43.6648 -0.00882268 42.9281 0.000177211H2.07191ZM2.07191 13.2353C1.3352 13.2263 0.649948 13.5607 0.278545 14.1104C-0.0928482 14.6601 -0.0928482 15.3399 0.278545 15.8896C0.649938 16.4393 1.33519 16.7737 2.07191 16.7647H42.9281C43.6648 16.7737 44.3501 16.4393 44.7215 15.8896C45.0928 15.3399 45.0928 14.6601 44.7215 14.1104C44.3501 13.5607 43.6648 13.2263 42.9281 13.2353H2.07191ZM2.07191 26.4704C1.3352 26.4614 0.649948 26.7958 0.278545 27.3455C-0.0928482 27.8952 -0.0928482 28.5751 0.278545 29.1248C0.649938 29.6745 1.33519 30.0088 2.07191 29.9998H42.9281C43.6648 30.0088 44.3501 29.6745 44.7215 29.1248C45.0928 28.5751 45.0928 27.8952 44.7215 27.3455C44.3501 26.7958 43.6648 26.4614 42.9281 26.4704H2.07191Z" fill="white"/>
</svg>
